<?xml version="1.0" encoding="UTF-8" standalone="no"?>
<svg width="600" height="400" xmlns="http://www.w3.org/2000/svg">
  <defs>
    <linearGradient id="grad1" x1="0%" y1="0%" x2="100%" y2="100%">
      <stop offset="0%" style="stop-color:#4361ee;stop-opacity:1" />
      <stop offset="100%" style="stop-color:#4cc9f0;stop-opacity:1" />
    </linearGradient>
    <linearGradient id="grad2" x1="0%" y1="0%" x2="100%" y2="100%">
      <stop offset="0%" style="stop-color:#f72585;stop-opacity:1" />
      <stop offset="100%" style="stop-color:#7209b7;stop-opacity:1" />
    </linearGradient>
  </defs>
  
  <!-- Dashboard Frame -->
  <rect x="0" y="0" width="600" height="400" rx="10" ry="10" fill="#f8f9fa"/>
  
  <!-- Navigation Bar -->
  <rect x="0" y="0" width="600" height="50" rx="10" ry="10" fill="white" stroke="#e9ecef" stroke-width="2"/>
  <rect x="20" y="15" width="120" height="20" rx="5" ry="5" fill="#4361ee"/>
  <rect x="400" y="15" width="50" height="20" rx="5" ry="5" fill="#e9ecef"/>
  <rect x="460" y="15" width="50" height="20" rx="5" ry="5" fill="#e9ecef"/>
  <rect x="520" y="15" width="60" height="20" rx="10" ry="10" fill="url(#grad1)"/>
  
  <!-- Left Sidebar -->
  <rect x="10" y="60" width="150" height="330" rx="10" ry="10" fill="white" stroke="#e9ecef" stroke-width="2"/>
  <rect x="25" y="80" width="120" height="20" rx="5" ry="5" fill="#e9ecef"/>
  <rect x="25" y="110" width="120" height="20" rx="5" ry="5" fill="#4361ee" opacity="0.2"/>
  <rect x="25" y="140" width="120" height="20" rx="5" ry="5" fill="#e9ecef"/>
  <rect x="25" y="170" width="120" height="20" rx="5" ry="5" fill="#e9ecef"/>
  <rect x="25" y="200" width="120" height="20" rx="5" ry="5" fill="#e9ecef"/>
  
  <!-- Main Dashboard Content -->
  <rect x="170" y="60" width="420" height="80" rx="10" ry="10" fill="white" stroke="#e9ecef" stroke-width="2"/>
  <rect x="190" y="80" width="200" height="15" rx="5" ry="5" fill="#212529"/>
  <rect x="190" y="105" width="150" height="10" rx="5" ry="5" fill="#6c757d"/>
  <rect x="500" y="80" width="70" height="30" rx="5" ry="5" fill="url(#grad1)"/>
  
  <!-- Stats Cards -->
  <rect x="170" y="150" width="130" height="80" rx="10" ry="10" fill="white" stroke="#e9ecef" stroke-width="2"/>
  <circle cx="200" cy="180" r="15" fill="url(#grad1)" opacity="0.3"/>
  <rect x="230" y="170" width="50" height="15" rx="5" ry="5" fill="#212529"/>
  <rect x="230" y="195" width="30" height="10" rx="5" ry="5" fill="#6c757d"/>
  
  <rect x="310" y="150" width="130" height="80" rx="10" ry="10" fill="white" stroke="#e9ecef" stroke-width="2"/>
  <circle cx="340" cy="180" r="15" fill="url(#grad2)" opacity="0.3"/>
  <rect x="370" y="170" width="50" height="15" rx="5" ry="5" fill="#212529"/>
  <rect x="370" y="195" width="30" height="10" rx="5" ry="5" fill="#6c757d"/>
  
  <rect x="450" y="150" width="130" height="80" rx="10" ry="10" fill="white" stroke="#e9ecef" stroke-width="2"/>
  <circle cx="480" cy="180" r="15" fill="#4cc9f0" opacity="0.3"/>
  <rect x="510" y="170" width="50" height="15" rx="5" ry="5" fill="#212529"/>
  <rect x="510" y="195" width="30" height="10" rx="5" ry="5" fill="#6c757d"/>
  
  <!-- Charts -->
  <rect x="170" y="240" width="270" height="150" rx="10" ry="10" fill="white" stroke="#e9ecef" stroke-width="2"/>
  <rect x="190" y="260" width="100" height="15" rx="5" ry="5" fill="#212529"/>
  <path d="M190,330 L220,310 L250,320 L280,290 L310,280 L340,300 L370,270 L400,290" stroke="#4361ee" stroke-width="3" fill="none"/>
  <path d="M190,350 L220,340 L250,350 L280,330 L310,340 L340,320 L370,330 L400,310" stroke="#4cc9f0" stroke-width="3" fill="none"/>
  
  <rect x="450" y="240" width="130" height="150" rx="10" ry="10" fill="white" stroke="#e9ecef" stroke-width="2"/>
  <rect x="470" y="260" width="80" height="15" rx="5" ry="5" fill="#212529"/>
  <!-- Donut Chart -->
  <circle cx="515" cy="330" r="40" fill="none" stroke="#e9ecef" stroke-width="15"/>
  <path d="M 515,330 L 515,290 A 40,40 0 1,1 485,350 z" fill="none" stroke="#4361ee" stroke-width="15"/>
</svg>